<svg width="705" height="147" viewBox="0 0 705 147" fill="none" xmlns="http://www.w3.org/2000/svg">
<path d="M47.4184 140.585C22.2408 129.734 6.12082 111.831 1.44029 84.7198C-3.60695 55.484 11.1036 24.9193 37.0736 10.1202C64.3848 -5.44308 95.8603 -2.77651 119.531 17.1059C147.922 40.9524 154.229 82.2936 134.098 114.343C131.625 118.279 131.016 121.648 132.51 125.937C133.761 129.528 134.487 133.339 135.09 137.109C136.095 143.39 132.801 146.496 126.679 144.694C122.078 143.339 117.634 141.322 113.306 139.217C110.33 137.77 107.851 137.781 104.849 139.234C86.0844 148.318 67.0119 148.516 47.4184 140.585ZM68.369 58.6034C72.2175 56.9002 71.1906 60.0829 71.1983 61.6589C71.2654 75.4842 71.2029 89.31 71.2063 103.136C71.2067 104.9 71.3654 106.664 71.4472 108.356C76.2177 108.356 80.428 108.356 84.6058 108.356C84.6058 85.6482 84.6058 63.415 84.6058 41.43C74.1541 38.6089 66.2516 44.439 57.8349 48.1296C56.9333 48.5249 56.161 50.1979 56.0912 51.3255C55.8697 54.9039 56.0093 58.5047 56.0093 62.7506C60.3922 61.2762 63.9897 60.0661 68.369 58.6034Z" fill="#03EEAF"/>
<path d="M281.982 74.8737C281.166 76.0163 280.35 77.159 279.752 77.9967C283.591 81.883 287.225 85.5628 290.957 89.9685C292.212 91.9212 293.37 93.1481 294.528 94.375C294.528 94.375 294.585 94.585 294.363 95.0283C294.877 101.378 295.613 107.285 296.35 113.192C295.128 116.403 293.906 119.614 292.007 123.013C288.298 126.084 285.164 128.87 282.288 131.901C281.234 133.013 280.793 134.706 280.072 136.134C280.072 136.134 280.063 136.047 279.736 136.04C275.616 137.749 271.825 139.464 268.033 141.18C268.033 141.18 268.035 141.062 267.614 141.031C245.618 140.999 224.043 140.999 202.058 140.999C202.058 138.188 202.058 136.212 202.058 134.235C202.057 100.408 202.055 66.5812 202.053 32.7542C202.053 29.9214 201.73 27.0354 202.191 24.2803C202.395 23.0643 204.193 21.1754 205.255 21.183C223.546 21.3142 241.836 21.6311 260.122 22.0811C263.183 22.1565 266.224 23.0455 269.275 23.5586C269.275 23.5586 269.275 23.4419 269.337 23.8134C270.331 24.4149 271.262 24.6449 272.194 24.8748C272.194 24.8748 272.069 24.9088 272.178 25.159C272.91 25.5782 273.534 25.7474 274.157 25.9166C274.157 25.9166 274.074 25.9396 274.058 26.2522C277.845 30.5529 281.626 34.563 285.49 38.4914C285.834 38.8413 286.719 38.6598 287.352 38.7251C287.352 38.7251 287.242 38.8332 287.187 39.1218C287.599 39.821 288.067 40.2317 288.535 40.6424C288.535 40.6424 288.524 40.7274 288.349 41.0361C288.523 41.8809 288.873 42.4171 289.222 42.9533C289.222 42.9533 289.084 42.9521 289.043 43.3288C289.063 45.3509 288.632 47.2288 289.278 48.5977C291.182 52.6284 291.096 56.3416 289.281 60.4094C287.682 63.9926 286.767 67.8806 285.55 71.634C285.55 71.634 285.443 71.6166 285.084 71.4568C283.811 72.4892 282.896 73.6814 281.982 74.8737ZM227.991 120.048C227.991 120.048 227.963 120.136 228.25 120.882C229.739 121.253 231.223 121.913 232.718 121.943C238.968 122.064 245.224 122.078 251.473 121.948C253.333 121.909 255.181 121.273 257.809 120.95C259.389 120.555 261.041 120.341 262.535 119.735C268.639 117.26 272.618 108.108 270.413 101.902C268.46 96.4056 264.28 93.4484 258.75 91.0034C258.053 90.6702 257.359 90.0534 256.659 90.047C248.233 89.971 239.805 89.9498 231.379 90.0355C230.604 90.0435 229.837 90.8842 228.438 91.6348C228.237 91.7494 228.036 91.864 227.077 92.2248C226.737 92.7443 226.107 93.2608 226.102 93.7835C226.023 101.722 225.971 109.663 226.093 117.6C226.106 118.419 227.271 119.219 227.991 120.048ZM260.563 66.8519C264.302 63.9499 266.864 56.8194 265.712 52.5236C264.317 47.3202 259.176 43.2828 252.835 43.0856C244.52 42.827 236.191 42.9936 227.105 43.2258C226.757 43.7367 226.11 44.2444 226.104 44.7589C226.023 52.3663 225.86 59.9817 226.184 67.5753C226.235 68.7745 228.534 70.8113 229.862 70.8679C237.292 71.1845 244.764 71.332 252.175 70.8358C254.837 70.6575 257.369 68.5256 260.563 66.8519Z" fill="#2A3D66"/>
<path d="M560.952 120.789C548.961 120.799 537.46 120.912 525.963 120.755C522.806 120.712 521.042 121.529 520.323 124.794C519.756 127.373 518.558 129.814 517.625 132.31C513.593 143.095 513.591 143.099 501.841 143.126C496.704 143.138 491.567 143.128 485.655 143.128C488.997 133.907 492.151 125.056 495.408 116.243C506.83 85.3315 518.369 54.4621 529.621 23.4886C530.901 19.9637 532.562 18.9338 536.041 19.069C542.032 19.3019 548.08 19.5706 554.025 18.9958C559.028 18.5121 560.986 20.7008 562.576 24.9256C571.841 49.5435 581.298 74.0889 590.699 98.6559C595.816 112.031 600.956 125.397 606.064 138.775C606.529 139.993 606.837 141.269 607.413 143.158C598.395 143.158 589.804 143.247 581.22 143.04C580.203 143.015 578.779 141.551 578.309 140.432C576.313 135.678 574.302 130.889 572.883 125.944C571.638 121.603 569.253 120.007 564.937 120.764C563.805 120.963 562.609 120.792 560.952 120.789ZM534.103 95.201C543.298 95.201 552.493 95.201 562.585 95.201C556.979 80.4083 551.765 66.6494 546.13 51.7793C540.889 65.9259 536.108 78.7943 531.365 91.6771C530.711 93.4558 530.044 95.4172 534.103 95.201Z" fill="#06EDB0"/>
<path d="M671.354 144.134C652.499 147.241 635.994 143.814 621.936 130.595C602.164 112.004 603.001 63.9024 642.684 52.1691C662.847 46.2073 680.908 51.0483 695.195 67.2027C700.554 73.2618 703.354 80.6294 704.273 88.485C704.942 94.214 704.404 100.084 704.404 106.779C681.475 106.779 658.497 106.779 634.861 106.779C637.386 114.371 641.937 118.718 648.167 121.15C659.245 125.475 669.804 124.604 678.928 116.416C681.832 113.811 683.904 113.637 686.988 115.98C691.464 119.381 696.303 122.303 701.364 125.682C693.369 135.258 683.549 141.21 671.354 144.134ZM645.812 74.1165C640.388 77.1452 636.48 81.3279 634.972 87.8195C650.15 87.8195 664.831 87.8195 679.575 87.8195C677.664 75.3866 661.284 67.1049 645.812 74.1165Z" fill="#06EDB0"/>
<path d="M368.116 51.9659C377.383 52.7825 385.129 57.7509 391.888 63.1136C397.088 67.2395 401.142 73.8837 403.499 80.228C406.023 87.0249 405.964 94.7815 406.675 102.79C404.584 109.368 402.849 115.274 401.114 121.181C401.114 121.181 401.092 121.091 400.777 121.067C397.968 124.329 395.474 127.615 392.98 130.901C392.98 130.901 393.023 130.95 392.63 130.997C390.934 132.489 389.631 133.934 388.328 135.38C388.328 135.38 388.09 135.208 387.855 135.177C386.842 135.915 386.064 136.684 385.286 137.453C385.286 137.453 385.226 137.315 384.893 137.216C380.338 138.47 375.994 139.534 371.916 141.235C363.002 144.953 354.077 144.074 345.148 141.738C340.159 140.433 335.296 138.653 330.376 137.086C329.943 136.954 329.51 136.823 329.023 136.094C326.83 133.101 326.185 128.809 321.514 129.633C321.514 129.633 321.514 129.538 321.582 129.172C321.278 128.665 320.906 128.523 320.534 128.381C320.534 128.381 320.526 128.425 320.664 128.08C319.718 126.464 318.634 125.192 317.55 123.92C317.411 123.697 317.273 123.474 317.023 122.913C316.911 122.575 316.865 122.492 316.865 122.492C315.573 119.97 314.28 117.448 312.999 114.098C312.946 112.115 313.023 110.933 312.794 109.813C310.576 98.9597 310.557 88.3753 315.832 78.1978C317.194 75.569 317.774 72.5346 318.714 69.6864C318.714 69.6864 318.752 69.8748 319.032 69.8644C319.88 69.2678 320.449 68.6815 321.017 68.0953C322.524 66.4344 324.032 64.7734 326.231 63.0061C329.842 61.162 332.606 59.0436 335.716 57.7712C340.983 55.6166 346.35 53.3388 351.896 52.3417C357.155 51.3961 362.698 52.0278 368.116 51.9659ZM376.652 80.8122C376.281 80.6646 375.909 80.517 375.712 80.4226C375.712 80.4226 375.531 80.4481 375.786 79.7449C374.96 76.0142 372.419 75.3221 368.346 75.8755C365.884 75.1952 363.422 74.5149 360.788 73.1265C357.986 73.0803 355.139 72.6917 352.389 73.0507C343.415 74.2224 336.34 78.9742 336.099 87.0762C336.099 87.0762 336.229 87.0759 335.588 87.3155C335.451 87.9589 335.314 88.6023 335.146 89.1004C335.146 89.1004 335.293 89.1215 334.517 89.2647C331.844 93.9178 331.226 98.8278 332.984 103.902C334.001 106.836 333.298 110.839 337.987 112.433C343.392 121.731 357.678 125.711 369.249 120.952C370.373 120.128 371.498 119.305 372.853 118.473C372.853 118.473 372.628 118.526 373.408 118.845C375.603 118.798 377.345 118.365 376.366 115.467C376.366 115.467 376.45 115.362 377.123 115.552C377.38 114.977 377.638 114.401 377.923 113.934C377.923 113.934 377.811 113.933 378.37 113.759C378.544 113.423 378.719 113.086 378.907 112.911C378.907 112.911 378.747 112.887 379.348 112.722C379.435 112.34 379.523 111.959 379.581 111.727C379.581 111.727 379.487 111.607 380.235 111.666C387.265 105.735 385.552 87.8942 379.676 82.9159C379.206 82.5176 378.241 82.7031 377.523 82.5491C377.523 82.5491 377.535 82.4797 377.639 81.8271C377.265 81.6989 376.892 81.5707 376.627 81.2295C376.627 81.2295 376.591 81.466 376.652 80.8122Z" fill="#2A3D66"/>
<path d="M453.721 52.0459C454.883 52.3103 456.045 52.5746 457.258 52.9929C456.995 53.4376 456.68 53.7282 456.365 54.0189C456.531 54.021 456.697 54.0248 456.862 54.0248C462.098 54.0251 467.334 54.0251 472.961 54.0251C472.961 60.106 473.194 65.4032 472.784 70.65C472.691 71.8464 470.452 73.6846 469.064 73.8195C464.782 74.2358 460.433 73.9714 454.864 73.9714C456.509 74.8069 456.923 75.0173 457.338 75.2278C456.187 75.9075 455.036 76.5872 453.413 77.7595C452.64 78.7944 452.08 79.3351 452.077 79.8789C452.018 90.4126 451.984 100.947 452.092 111.48C452.1 112.317 453.183 113.143 453.766 113.974C454.682 118.812 457.936 120.908 462.528 121.12C466.317 121.295 470.121 121.156 474.322 121.156C474.322 128.503 474.322 135.686 474.322 143.087C466.213 143.087 457.993 143.087 449.318 142.62C448.541 141.803 448.286 141.291 447.888 141.126C437.733 136.912 431.243 129.658 430.768 118.452C430.298 107.388 430.176 96.249 430.922 85.2121C431.484 76.9084 429.722 73.91 421.611 73.9715C420.447 73.9804 419.278 73.9062 418.119 73.9819C415.168 74.1744 413.854 72.8925 413.931 69.885C414.028 66.064 414.412 62.1445 413.733 58.4397C413.077 54.8632 414.131 53.9755 417.383 53.9832C421.345 53.9926 426.62 55.1708 428.886 53.1313C430.962 51.2636 429.919 45.7886 430.011 41.8974C430.107 37.7917 431.885 35.6467 436.062 34.9452C439.762 34.3235 443.385 33.1098 446.96 31.9109C449.887 30.9291 451.521 32.0795 451.873 34.7769C452.123 36.6867 451.426 38.7 451.396 40.6707C451.337 44.6154 449.648 48.9346 453.721 52.0459Z" fill="#2A3D66"/>
<path d="M453.787 51.5786C449.648 48.9346 451.337 44.6154 451.396 40.6707C451.426 38.7 452.123 36.6867 451.873 34.777C451.521 32.0796 449.887 30.9291 446.96 31.9109C443.385 33.1099 439.762 34.3235 436.062 34.9452C431.885 35.6467 430.107 37.7917 430.011 41.8975C429.919 45.7886 430.962 51.2636 428.886 53.1313C426.62 55.1708 421.345 53.9926 417.383 53.9832C414.131 53.9756 413.077 54.8633 413.733 58.4398C414.412 62.1445 414.028 66.064 413.931 69.885C413.854 72.8926 415.168 74.1745 418.119 73.9819C419.278 73.9063 420.447 73.9804 421.611 73.9716C429.722 73.91 431.484 76.9085 430.922 85.2122C430.176 96.249 430.298 107.388 430.768 118.452C431.243 129.658 437.733 136.912 447.888 141.126C448.286 141.291 448.541 141.803 448.925 142.491C448.465 142.705 447.944 142.581 446.996 142.182C446.57 141.906 446.183 141.949 446.183 141.949C435.548 138.135 429.089 129.438 428.986 118.291C428.856 104.177 428.955 90.061 428.955 75.5656C423.317 75.5656 417.927 75.5656 412.263 75.5656C412.263 67.8245 412.263 60.4621 412.263 52.7828C417.824 52.7828 423.258 52.7828 428.92 52.7828C428.92 46.8379 428.92 41.2045 428.92 35.4094C436.182 33.2493 443.273 31.1396 451.078 29.0587C452.408 29.0654 453.026 29.0432 453.644 29.021C453.713 36.3844 453.783 43.7478 453.787 51.5786Z" fill="#1E283C"/>
<path d="M269.043 23.295C266.224 23.0456 263.183 22.1566 260.122 22.0811C241.836 21.6311 223.546 21.3142 205.255 21.183C204.193 21.1754 202.395 23.0644 202.191 24.2804C201.73 27.0354 202.053 29.9214 202.053 32.7542C202.055 66.5813 202.057 100.408 202.058 134.235C202.058 136.212 202.058 138.189 202.058 140.999C224.043 140.999 245.618 140.999 267.671 141.042C265.986 141.695 263.825 142.82 261.656 142.834C241.561 142.97 221.464 142.915 201.13 142.915C201.13 101.961 201.13 61.254 201.13 19.9386C203.333 19.9386 205.594 19.9385 207.855 19.9386C222.834 19.9388 237.821 19.673 252.789 20.0812C258.152 20.2275 263.471 22.0007 269.043 23.295Z" fill="#1E283C"/>
<path d="M330.594 137.384C335.296 138.653 340.159 140.433 345.148 141.738C354.077 144.074 363.002 144.953 371.916 141.235C375.994 139.534 380.338 138.469 384.964 137.241C367.245 148.103 349.059 148.044 330.594 137.384Z" fill="#1E283C"/>
<path d="M367.933 51.6151C362.698 52.0278 357.155 51.3961 351.896 52.3416C346.35 53.3387 340.983 55.6166 335.716 57.7712C332.606 59.0436 329.842 61.1619 326.572 62.9648C329.245 60.4186 331.877 56.9636 335.361 55.355C345.615 50.6209 356.477 48.8423 367.933 51.6151Z" fill="#1E283C"/>
<path d="M318.434 69.8831C317.774 72.5345 317.194 75.569 315.832 78.1978C310.557 88.3753 310.576 98.9597 312.794 109.813C313.023 110.933 312.946 112.115 312.982 113.709C307.154 98.5706 309.303 83.9296 318.434 69.8831Z" fill="#1E283C"/>
<path d="M457.759 75.3045C456.923 75.0173 456.509 74.8069 454.865 73.9714C460.433 73.9714 464.782 74.2358 469.064 73.8195C470.452 73.6846 472.691 71.8464 472.784 70.65C473.194 65.4032 472.961 60.106 472.961 54.0252C467.334 54.0252 462.098 54.0252 456.862 54.0249C456.697 54.0248 456.531 54.021 456.365 54.0189C456.68 53.7283 456.995 53.4376 457.618 53.085C459.033 52.9829 460.14 52.9426 461.967 53.0222C463.101 53.102 463.516 53.062 463.931 53.022C465.034 52.9793 466.138 52.9365 468.061 53.0182C470.257 53.0831 471.633 53.0234 473.009 52.9637C473.187 52.9227 473.365 52.8816 473.802 53.1502C474.119 53.6986 474.262 53.8673 474.487 53.9657C474.425 60.9388 474.364 67.9119 473.444 74.9492C470.912 75.0687 469.237 75.124 467.562 75.1793C464.435 75.2466 461.308 75.314 457.759 75.3045Z" fill="#1E283C"/>
<path d="M453.82 113.509C453.183 113.143 452.1 112.317 452.092 111.48C451.984 100.947 452.018 90.4126 452.077 79.879C452.08 79.3351 452.64 78.7944 453.314 78.1385C453.75 89.6982 453.812 101.372 453.82 113.509Z" fill="#1E283C"/>
<path d="M285.886 71.5775C286.767 67.8806 287.682 63.9926 289.281 60.4095C291.096 56.3417 291.182 52.6284 289.278 48.5977C288.632 47.2288 289.063 45.3509 289.057 43.2614C294.075 49.0345 292.698 64.8154 285.886 71.5775Z" fill="#1E283C"/>
<path d="M287.255 38.3949C286.719 38.6598 285.834 38.8414 285.49 38.4915C281.626 34.5631 277.845 30.553 274.06 26.2094C278.438 29.9241 282.798 33.9944 287.255 38.3949Z" fill="#1E283C"/>
<path d="M280.405 136.047C280.793 134.706 281.234 133.013 282.288 131.901C285.164 128.87 288.298 126.084 291.653 123.105C290.57 129.356 285.218 132.279 280.405 136.047Z" fill="#1E283C"/>
<path d="M401.408 120.984C402.849 115.274 404.584 109.368 406.599 103.241C405.154 108.944 403.427 114.866 401.408 120.984Z" fill="#1E283C"/>
<path d="M296.623 112.937C295.613 107.285 294.877 101.378 294.3 95.1172C297.927 100.375 297.233 106.552 296.623 112.937Z" fill="#1E283C"/>
<path d="M393.184 130.637C395.474 127.615 397.968 124.329 400.823 121.074C398.585 124.195 395.986 127.284 393.184 130.637Z" fill="#1E283C"/>
<path d="M268.339 141.135C271.825 139.464 275.616 137.749 279.776 136.057C276.311 137.75 272.479 139.419 268.339 141.135Z" fill="#1E283C"/>
<path d="M321.684 129.899C326.185 128.809 326.83 133.101 328.955 135.864C326.579 134.21 324.217 132.188 321.684 129.899Z" fill="#1E283C"/>
<path d="M388.641 135.266C389.631 133.934 390.934 132.489 392.607 131.02C391.636 132.382 390.295 133.768 388.641 135.266Z" fill="#1E283C"/>
<path d="M294.392 94.0841C293.37 93.1481 292.212 91.9212 291.043 90.3101C292.106 91.215 293.181 92.5041 294.392 94.0841Z" fill="#1E283C"/>
<path d="M317.501 124.23C318.634 125.192 319.718 126.464 320.642 128.08C319.472 127.13 318.462 125.835 317.501 124.23Z" fill="#1E283C"/>
<path d="M282.287 74.7904C282.896 73.6815 283.811 72.4893 285.101 71.4054C284.515 72.5782 283.554 73.6426 282.287 74.7904Z" fill="#1E283C"/>
<path d="M385.589 137.352C386.064 136.684 386.842 135.915 387.988 135.238C387.535 135.971 386.714 136.611 385.589 137.352Z" fill="#1E283C"/>
<path d="M472.705 52.8948C471.633 53.0234 470.257 53.0831 468.471 53.0792C469.508 52.9524 470.955 52.8891 472.705 52.8948Z" fill="#2A3D66"/>
<path d="M467.921 75.3117C469.237 75.124 470.912 75.0687 473.083 75.118C471.812 75.2964 470.045 75.3703 467.921 75.3117Z" fill="#2A3D66"/>
<path d="M320.697 68.1275C320.449 68.6815 319.88 69.2677 318.979 69.7841C319.223 69.1961 319.801 68.6779 320.697 68.1275Z" fill="#1E283C"/>
<path d="M271.986 24.624C271.262 24.6449 270.331 24.415 269.393 23.797C270.185 23.7304 270.982 24.0517 271.986 24.624Z" fill="#1E283C"/>
<path d="M453.684 28.7347C453.026 29.0432 452.408 29.0654 451.483 29.069C452.025 28.8497 452.875 28.649 453.684 28.7347Z" fill="#2A3D66"/>
<path d="M273.972 25.6672C273.534 25.7475 272.91 25.5783 272.178 25.0943C272.641 24.9923 273.214 25.2051 273.972 25.6672Z" fill="#1E283C"/>
<path d="M316.871 122.625C316.865 122.492 316.911 122.575 316.922 122.533C316.932 122.491 316.693 122.781 316.693 122.781C316.693 122.781 316.877 122.758 316.871 122.625Z" fill="#1E283C"/>
<path d="M288.432 40.3589C288.067 40.2317 287.599 39.8211 287.204 39.0468C287.627 39.1472 287.978 39.6113 288.432 40.3589Z" fill="#1E283C"/>
<path d="M289.155 42.6438C288.873 42.4171 288.523 41.881 288.316 41.009C288.668 41.2268 288.878 41.7805 289.155 42.6438Z" fill="#1E283C"/>
<path d="M463.758 52.9306C463.516 53.062 463.101 53.102 462.378 53.083C462.575 52.9625 463.08 52.9009 463.758 52.9306Z" fill="#2A3D66"/>
<path d="M320.63 128.629C320.906 128.523 321.278 128.665 321.612 129.135C321.291 129.268 321.009 129.073 320.63 128.629Z" fill="#1E283C"/>
<path d="M474.619 53.7679C474.262 53.8673 474.119 53.6986 474.038 53.2912C474.4 53.0432 474.645 53.1922 474.619 53.7679Z" fill="#2A3D66"/>
<path d="M446.249 142.043C446.183 141.949 446.57 141.906 446.645 141.975C446.719 142.044 446.315 142.137 446.249 142.043Z" fill="#2A3D66"/>
<path d="M67.9781 58.7296C63.9897 60.066 60.3922 61.2762 56.0093 62.7505C56.0093 58.5046 55.8697 54.9039 56.0912 51.3254C56.161 50.1979 56.9334 48.5249 57.8349 48.1296C66.2516 44.4389 74.1541 38.6089 84.6058 41.43C84.6058 63.4149 84.6058 85.6481 84.6058 108.356C80.428 108.356 76.2177 108.356 71.4472 108.356C71.3654 106.664 71.2067 104.9 71.2063 103.136C71.2029 89.31 71.2654 75.4841 71.1983 61.6589C71.1906 60.0829 72.2175 56.9001 67.9781 58.7296Z" fill="#F2FFFF"/>
<path d="M227.486 43.1016C227.867 51.7516 227.867 60.5259 227.867 70.7796C238.731 69.6454 248.998 68.5734 259.612 67.3934C257.369 68.5257 254.837 70.6575 252.175 70.8358C244.764 71.332 237.292 71.1845 229.862 70.868C228.534 70.8114 226.235 68.7745 226.184 67.5754C225.86 59.9818 226.023 52.3663 226.104 44.759C226.11 44.2444 226.757 43.7367 227.486 43.1016Z" fill="#1E283C"/>
<path d="M228.106 120.509C237.476 120.171 246.989 120.206 256.769 120.576C255.181 121.273 253.333 121.909 251.473 121.948C245.224 122.078 238.968 122.064 232.718 121.943C231.223 121.914 229.739 121.253 228.106 120.509Z" fill="#1E283C"/>
<path d="M227.456 92.1017C227.851 101.015 227.868 110.051 227.892 119.558C227.271 119.219 226.106 118.419 226.093 117.6C225.971 109.663 226.023 101.722 226.102 93.7836C226.107 93.2609 226.737 92.7443 227.456 92.1017Z" fill="#1E283C"/>
<path d="M233.089 91.4102C232.005 91.4813 230.92 91.5524 229.451 91.4809C229.837 90.8843 230.604 90.0435 231.379 90.0356C239.805 89.9498 248.233 89.9711 256.659 90.047C257.359 90.0534 258.053 90.6702 258.858 91.3817C258.197 91.7333 257.428 91.7066 255.93 91.3833C247.83 91.1945 240.46 91.3024 233.089 91.4102Z" fill="#1E283C"/>
<path d="M360.874 73.4805C350.474 73.6666 341.862 77.0127 336.404 86.9912C336.34 78.9742 343.415 74.2224 352.389 73.0507C355.139 72.6917 357.986 73.0803 360.874 73.4805Z" fill="#1E283C"/>
<path d="M379.861 111.636C384.87 101.793 384.54 92.3099 377.673 82.9067C378.241 82.7031 379.206 82.5176 379.676 82.9158C385.552 87.8942 387.265 105.735 379.861 111.636Z" fill="#1E283C"/>
<path d="M334.905 89.1931C333.158 96.7325 333.168 104.146 337.46 111.545C333.298 110.839 334.001 106.836 332.984 103.902C331.226 98.8278 331.844 93.9178 334.905 89.1931Z" fill="#1E283C"/>
<path d="M375.658 80.0965C373.512 79.1423 371.494 77.8366 369.296 76.255C372.419 75.3221 374.96 76.0143 375.658 80.0965Z" fill="#1E283C"/>
<path d="M373.018 118.686C373.676 117.635 374.724 116.745 376.006 115.683C377.345 118.365 375.603 118.798 373.018 118.686Z" fill="#1E283C"/>
<path d="M368.835 120.931C369.606 120.192 370.791 119.475 372.299 118.619C371.497 119.305 370.373 120.128 368.835 120.931Z" fill="#1E283C"/>
<path d="M376.787 115.457C376.77 114.93 377.09 114.499 377.652 113.947C377.638 114.401 377.38 114.977 376.787 115.457Z" fill="#1E283C"/>
<path d="M335.909 87.1957C336.052 87.6785 335.874 88.2811 335.437 89.0647C335.314 88.6023 335.451 87.9589 335.909 87.1957Z" fill="#1E283C"/>
<path d="M378.091 113.846C378.002 113.62 378.194 113.306 378.639 112.872C378.719 113.086 378.544 113.423 378.091 113.846Z" fill="#1E283C"/>
<path d="M379.048 112.805C378.878 112.546 379.009 112.204 379.375 111.719C379.523 111.958 379.435 112.34 379.048 112.805Z" fill="#1E283C"/>
<path d="M377.587 82.1534C377.262 82.2907 376.989 82.1016 376.617 81.6775C376.892 81.5706 377.265 81.6989 377.587 82.1534Z" fill="#1E283C"/>
<path d="M376.622 81.1391C376.307 81.2659 376.023 81.0658 375.638 80.6175C375.909 80.517 376.281 80.6646 376.622 81.1391Z" fill="#1E283C"/>
<path d="M233.535 91.5371C240.46 91.3023 247.83 91.1945 255.56 91.2704C248.607 91.5241 241.294 91.5941 233.535 91.5371Z" fill="#2A3D66"/>
</svg>
